<svg width="401" height="136" viewBox="0 0 401 136" fill="none" xmlns="http://www.w3.org/2000/svg">
<path d="M215.35 116.66C215.35 123.18 211.41 127.42 205.8 126.51C192.16 124.54 180.19 118.02 174.89 108.78C169.89 118.02 157.77 124.54 143.98 126.51C138.52 127.42 134.58 123.18 134.58 116.66V94.38C134.58 89.38 137.16 85.29 143.52 80.14C148.52 76.2 150.95 73.78 150.95 61.35V20.31C150.95 13.95 154.89 9.70001 160.5 9.70001H189.29C195.05 9.70001 198.84 13.94 198.84 20.31V61.35C198.84 73.78 201.42 76.2 206.42 80.14C212.78 85.29 215.36 89.38 215.36 94.38V116.66H215.35ZM264.3 116.66C264.3 123.02 260.51 127.27 254.75 127.27H228.69C222.93 127.27 219.14 123.03 219.14 116.66V20.31C219.14 13.95 222.93 9.70001 228.69 9.70001H254.75C260.51 9.70001 264.3 13.94 264.3 20.31V116.66Z" fill="#FF5732"/>
<path d="M359.24 116.66C359.24 123.02 355.45 127.27 349.69 127.27H334.69C328.93 127.27 325.14 123.03 325.14 116.66V106.36H310.29C303.02 118.79 292.41 125 277.86 126.67C272.25 127.43 268.31 123.18 268.31 116.67V90.91C268.31 87.73 269.98 85 273.31 82.73C278.92 78.94 282.7 75.3 282.7 58.18V45.42H277.85C272.09 45.42 268.3 41.18 268.3 34.81V20.32C268.3 13.96 272.09 9.71001 277.85 9.71001H311.95C317.56 9.71001 321.5 13.95 321.5 20.32V27.59H325.14V20.32C325.14 13.96 328.93 9.71001 334.69 9.71001H349.69C355.45 9.71001 359.24 13.95 359.24 20.32V116.67V116.66ZM325.15 71.65V61.28H321.51C321.36 67.19 321.06 66.65 320.6 71.65H325.15ZM396.67 116.66C396.67 123.02 392.88 127.27 387.12 127.27H372.12C366.51 127.27 362.57 123.03 362.57 116.66V20.31C362.57 13.95 366.51 9.70001 372.12 9.70001H387.12C392.88 9.70001 396.67 13.94 396.67 20.31V116.66Z" fill="#FF5732"/>
<path d="M94.8501 64.63C85.0601 63.27 75.2901 62.35 65.4601 62.35C52.7101 62.35 39.8501 63.88 26.7101 67.94C25.3601 68.36 24.0301 68.86 22.7001 69.34C21.8301 69.66 20.9701 69.99 20.1301 70.35C16.2901 72 12.3101 73.92 9.40015 77.03C8.83015 77.64 8.35015 78.29 7.93015 78.97C6.83015 80.72 6.10015 82.68 5.71015 84.71C5.68015 84.89 5.64015 85.06 5.61015 85.24C5.56015 85.53 5.51015 85.81 5.46015 86.1C5.42015 86.34 5.39015 86.58 5.36015 86.82C5.33015 87.04 5.30015 87.25 5.28015 87.47C5.23015 87.94 5.18015 88.42 5.14015 88.89C4.88015 91.74 4.74015 94.2 4.70015 96.6C4.68015 97.01 4.65015 97.42 4.65015 97.83C4.65015 98.24 4.68015 98.65 4.70015 99.06C4.74015 101.46 4.88015 103.92 5.14015 106.77C5.17015 107.15 5.22015 107.53 5.27015 107.91C5.37015 108.67 5.50015 109.43 5.66015 110.18C5.74015 110.56 5.83015 110.93 5.92015 111.3C6.21015 112.42 6.57015 113.52 7.00015 114.58C7.15015 114.94 7.30015 115.29 7.46015 115.63C7.95015 116.67 8.51015 117.67 9.16015 118.62C10.2401 120.2 11.5401 121.62 13.0901 122.82C18.7201 127.18 26.8101 128.92 33.6601 130.02C34.9701 130.23 36.2901 130.42 37.6201 130.6C38.0601 130.66 38.5101 130.71 38.9501 130.77C39.8401 130.88 40.7301 130.99 41.6301 131.09C42.1601 131.15 42.7001 131.2 43.2301 131.25C44.0501 131.33 44.8701 131.41 45.7001 131.49C46.2601 131.54 46.8301 131.58 47.4001 131.63C48.2001 131.69 49.0001 131.75 49.8101 131.81C50.3901 131.85 50.9701 131.88 51.5501 131.92C52.3501 131.97 53.1501 132.01 53.9601 132.04C54.5401 132.07 55.1201 132.09 55.7001 132.11C56.5201 132.14 57.3401 132.17 58.1601 132.19C58.7201 132.21 59.2801 132.22 59.8401 132.23C60.7001 132.25 61.5501 132.26 62.4101 132.26C62.9301 132.26 63.4601 132.27 63.9801 132.27C64.5901 132.27 65.2001 132.27 65.8001 132.26C66.7301 132.26 67.6701 132.25 68.6001 132.23C69.2301 132.22 69.8601 132.2 70.4901 132.19C71.3801 132.17 72.2601 132.14 73.1401 132.11C73.7901 132.09 74.4301 132.06 75.0801 132.03C75.9401 131.99 76.8001 131.95 77.6601 131.91C78.3102 131.88 78.9501 131.84 79.5901 131.8C80.4401 131.75 81.2801 131.69 82.1301 131.64C82.7601 131.6 83.4001 131.55 84.0301 131.5C84.8801 131.44 85.7201 131.37 86.5601 131.29C87.1701 131.24 87.7801 131.19 88.3801 131.13C89.2401 131.05 90.1001 130.96 90.9501 130.88C91.5101 130.82 92.0801 130.77 92.6401 130.71C93.5801 130.61 94.5001 130.5 95.4201 130.39C95.8801 130.34 96.3401 130.28 96.8001 130.23C98.1401 130.06 99.4701 129.89 100.78 129.7C100.8 129.7 100.83 129.7 100.86 129.69C102.06 129.52 103.21 129.12 104.38 128.82C106.13 128.36 107.93 127.83 109.73 127.2C110.81 126.83 111.89 126.42 112.96 125.98C113.32 125.83 113.67 125.68 114.02 125.52C115.78 124.74 117.5 123.86 119.12 122.86C120.09 122.26 121.02 121.62 121.91 120.93C122.8 120.24 123.64 119.51 124.41 118.72C124.67 118.46 124.92 118.19 125.17 117.92C127.88 114.93 129.73 111.26 130.13 106.75C130.19 106.04 130.25 105.35 130.3 104.68C130.45 102.67 130.54 100.84 130.57 99.04C130.59 98.63 130.62 98.22 130.62 97.81C130.62 97.4 130.59 96.99 130.57 96.58C130.53 94.17 130.39 91.72 130.13 88.87C130.09 88.38 130.02 87.91 129.95 87.44C129.93 87.28 129.89 87.13 129.87 86.98C129.82 86.67 129.76 86.37 129.69 86.07C129.65 85.89 129.6 85.72 129.56 85.54C129.49 85.27 129.43 85.01 129.35 84.75C129.3 84.57 129.24 84.39 129.18 84.21C129.1 83.96 129.02 83.72 128.93 83.48C128.87 83.3 128.8 83.12 128.73 82.95C128.64 82.72 128.54 82.49 128.44 82.26C128.37 82.09 128.29 81.92 128.21 81.76C128.1 81.52 127.98 81.29 127.85 81.06C127.77 80.91 127.7 80.76 127.62 80.62C127.42 80.26 127.21 79.91 126.99 79.57C121.75 71.37 110.98 67.54 101.18 65.65C100.46 65.51 99.7501 65.38 99.0401 65.26C98.9801 65.25 98.9201 65.24 98.8601 65.23C98.1701 65.11 97.4901 65.01 96.8201 64.91C96.1501 64.81 95.4801 64.73 94.8101 64.63H94.8501ZM88.3301 100.63C75.3001 97.6 60.1401 97.6 46.9601 100.63V96.99C60.1401 93.96 75.3001 93.96 88.3301 96.99V100.63Z" fill="#FF5732"/>
<path d="M4.64007 56.93C4.64007 59.06 4.66007 61.18 4.69007 63.31C4.73007 66.06 4.59007 73.37 5.49007 75.7C5.61007 76.01 5.75007 76.3 5.89007 76.59C6.29007 76.04 6.72007 75.5 7.21007 74.98C10.0601 71.94 13.6001 70.05 16.3701 68.75C18.1501 67.91 20.0601 67.12 22.0401 66.39L22.1101 66.36C23.3101 65.92 24.5501 65.47 25.8201 65.07C38.2901 61.22 51.2601 59.35 65.4501 59.35C74.7001 59.35 84.4901 60.13 96.1401 61.78C96.4801 60.63 96.6601 59.37 96.6601 58.01V24.93C96.6601 14.84 88.9501 6.18001 78.8801 5.58001C73.1401 5.24001 67.9101 7.33001 64.0601 10.91C60.5601 7.59001 55.8501 5.55001 50.6601 5.55001C45.4701 5.55001 40.8901 7.54001 37.4101 10.77C33.5101 7.15001 28.1501 5.09001 22.2901 5.64001C13.3801 6.47001 5.51007 14.88 4.69007 23.82C4.25007 28.57 4.69007 33.43 4.68007 38.19C4.67007 44.44 4.65007 50.69 4.64007 56.93ZM64.3501 38.49H68.9501C70.1801 41.52 70.1801 48.13 68.9501 51.16H64.3501C65.5801 48.13 65.5801 41.52 64.3501 38.49ZM33.4101 38.49H38.0101C39.2401 41.52 39.2401 48.13 38.0101 51.16H33.4101C34.6401 48.13 34.6401 41.52 33.4101 38.49Z" fill="#FF5732"/>
<path fill-rule="evenodd" clip-rule="evenodd" d="M129.54 16.61C129.54 10.24 125.75 6 119.99 6H109.53C103.77 6 99.98 10.25 99.98 16.61V60C99.98 60.84 100.07 61.64 100.2 62.4C108.02 63.77 114.53 65.92 119.59 68.82C123.44 71.03 126.48 73.66 128.71 76.7C129.24 75.32 129.54 73.75 129.54 72V61.78C129.54 61.09 130.1 60.53 130.79 60.53C135.69 60.53 139.67 56.56 139.67 51.65V30.42C139.67 25.52 135.7 21.54 130.79 21.54C130.1 21.54 129.54 20.98 129.54 20.29V16.61Z" fill="#FF5732"/>
</svg>
