
<svg width="84" height="30" viewBox="0 0 84 30" fill="none" xmlns="http://www.w3.org/2000/svg">
<path d="M27.232 24.616C26.976 27.848 24.576 29.032 21.312 29.096C15.968 29.224 12.096 29.224 6.752 29.096C3.52 29.032 1.088 27.848 0.832 24.616C0.704 23.208 0.704 22.248 0.832 20.84C1.088 17.608 3.52 16.424 6.752 16.36C12.096 16.232 15.968 16.232 21.312 16.36C24.576 16.424 26.976 17.608 27.232 20.84C27.36 22.248 27.36 23.208 27.232 24.616ZM20 2.92V13.352C20 14.696 19.2 15.592 17.984 15.592H3.008C1.792 15.592 0.992 14.696 0.992 13.352V2.92C0.992 1.576 1.792 0.679998 3.008 0.679998H5.12C6.112 0.679998 6.784 1.416 6.784 2.536V2.568H7.744V2.536C7.744 1.416 8.416 0.679998 9.44 0.679998H11.584C12.576 0.679998 13.248 1.416 13.248 2.536V2.568H14.208V2.536C14.208 1.416 14.88 0.679998 15.872 0.679998H18.016C19.2 0.679998 20 1.576 20 2.92ZM27.104 13.16V13.352C27.104 14.696 26.304 15.592 25.088 15.592H22.88C21.664 15.592 20.864 14.696 20.864 13.352V2.92C20.864 1.576 21.664 0.679998 22.88 0.679998H25.088C26.304 0.679998 27.104 1.576 27.104 2.92V3.368C27.104 4.712 29.088 4.648 29.088 5.992V10.536C29.088 11.88 27.104 11.816 27.104 13.16ZM18.4 23.112V22.344C15.648 21.704 12.448 21.704 9.664 22.344V23.112C12.448 22.472 15.648 22.472 18.4 23.112ZM13.248 10.216H14.208C14.464 9.576 14.464 8.392 14.208 7.752H13.248C13.504 8.392 13.504 9.576 13.248 10.216ZM6.784 10.216H7.744C8 9.576 8 8.392 7.744 7.752H6.784C7.04 8.392 7.04 9.576 6.784 10.216ZM55.6605 2.92V26.856C55.6605 28.2 54.8605 29.096 53.6445 29.096H48.1405C46.9245 29.096 46.1245 28.2 46.1245 26.856V2.92C46.1245 1.576 46.9245 0.679998 48.1405 0.679998H53.6445C54.8605 0.679998 55.6605 1.576 55.6605 2.92ZM45.3245 22.152V26.856C45.3245 28.232 44.4925 29.128 43.3085 28.936C40.4285 28.52 37.9005 27.144 36.7805 25.192C35.7245 27.144 33.1645 28.52 30.2525 28.936C29.1005 29.128 28.2685 28.232 28.2685 26.856V22.152C28.2685 21.096 28.8125 20.232 30.1565 19.144C31.2125 18.312 31.7245 16.744 31.7245 14.12V2.92C31.7245 1.576 32.5565 0.679998 33.7405 0.679998H39.8205C41.0365 0.679998 41.8365 1.576 41.8365 2.92V14.12C41.8365 16.744 42.3805 18.312 43.4365 19.144C44.7805 20.232 45.3245 21.096 45.3245 22.152ZM75.609 2.92V26.856C75.609 28.2 74.809 29.096 73.593 29.096H70.425C69.209 29.096 68.409 28.2 68.409 26.856V24.68H65.273C63.737 27.304 61.497 28.616 58.425 28.968C57.241 29.128 56.409 28.232 56.409 26.856V21.416C56.409 20.744 56.761 20.168 57.465 19.688C58.649 18.888 59.449 17.064 59.449 13.448V9.064H58.425C57.209 9.064 56.409 8.168 56.409 6.824V2.92C56.409 1.576 57.209 0.679998 58.425 0.679998H65.625C66.809 0.679998 67.641 1.576 67.641 2.92V4.456H68.409V2.92C68.409 1.576 69.209 0.679998 70.425 0.679998H73.593C74.809 0.679998 75.609 1.576 75.609 2.92ZM83.513 2.92V26.856C83.513 28.2 82.713 29.096 81.497 29.096H78.329C77.145 29.096 76.313 28.2 76.313 26.856V2.92C76.313 1.576 77.145 0.679998 78.329 0.679998H81.497C82.713 0.679998 83.513 1.576 83.513 2.92ZM67.449 16.296H68.409V12.84H67.641C67.609 14.088 67.545 15.24 67.449 16.296Z" fill="#FF5732"/>
</svg>
